<svg xmlns="http://www.w3.org/2000/svg" style="display: none;">
    <!-- Checkmark -->
    <symbol id="icon-check" viewBox="0 0 24 24">
        <polyline points="20 6 9 17 4 12" fill="none" stroke="currentColor" stroke-width="2"/>
    </symbol>
    
    <!-- Star -->
    <symbol id="icon-star" viewBox="0 0 24 24">
        <polygon points="12 2 15.09 8.26 22 9.27 17 14.14 18.18 21.02 12 17.77 5.82 21.02 7 14.14 2 9.27 8.91 8.26 12 2" fill="currentColor"/>
    </symbol>
    
    <!-- Trophy -->
    <symbol id="icon-trophy" viewBox="0 0 24 24">
        <circle cx="12" cy="8" r="7" fill="none" stroke="currentColor" stroke-width="2"/>
        <polyline points="8.21 13.89 7 23 12 20 17 23 15.79 13.88" fill="none" stroke="currentColor" stroke-width="2"/>
    </symbol>
    
    <!-- Clock -->
    <symbol id="icon-clock" viewBox="0 0 24 24">
        <circle cx="12" cy="12" r="10" fill="none" stroke="currentColor" stroke-width="2"/>
        <polyline points="12 6 12 12 16 14" fill="none" stroke="currentColor" stroke-width="2"/>
    </symbol>
    
    <!-- Refresh -->
    <symbol id="icon-refresh" viewBox="0 0 24 24">
        <path d="M21.5 2v6h-6M2.5 22v-6h6M2 11.5a10 10 0 0 1 18.8-4.3M22 12.5a10 10 0 0 1-18.8 4.2" fill="none" stroke="currentColor" stroke-width="2"/>
    </symbol>
</svg>